<!DOCTYPE svg PUBLIC "-//W3C//DTD SVG 1.1//EN" "http://www.w3.org/Graphics/SVG/1.1/DTD/svg11.dtd">
<!-- Uploaded to: SVG Repo, www.svgrepo.com, Transformed by: SVG Repo Mixer Tools -->
<svg fill="#cf4500" width="80px" height="80px" viewBox="-9.6 -9.6 51.20 51.20" id="icon" xmlns="http://www.w3.org/2000/svg">
<g id="SVGRepo_bgCarrier" stroke-width="0">
<path transform="translate(-9.6, -9.6), scale(3.2)" fill="#323231" d="M9.166.33a2.25 2.25 0 00-2.332 0l-5.25 3.182A2.25 2.25 0 00.5 5.436v5.128a2.25 2.25 0 001.084 1.924l5.25 3.182a2.25 2.25 0 002.332 0l5.25-3.182a2.25 2.25 0 001.084-1.924V5.436a2.25 2.25 0 00-1.084-1.924L9.166.33z" strokewidth="0"/>
</g>
<g id="SVGRepo_tracerCarrier" stroke-linecap="round" stroke-linejoin="round"/>
<g id="SVGRepo_iconCarrier">
<defs>
<style>.cls-1{fill:none;}</style>
</defs>
<title>collaborate</title>
<path d="M6,21V20H4v1a7,7,0,0,0,7,7h3V26H11A5,5,0,0,1,6,21Z" transform="translate(0)"/>
<path d="M24,11v1h2V11a7,7,0,0,0-7-7H16V6h3A5,5,0,0,1,24,11Z" transform="translate(0)"/>
<path d="M11,11H5a3,3,0,0,0-3,3v2H4V14a1,1,0,0,1,1-1h6a1,1,0,0,1,1,1v2h2V14A3,3,0,0,0,11,11Z" transform="translate(0)"/>
<path d="M8,10A4,4,0,1,0,4,6,4,4,0,0,0,8,10ZM8,4A2,2,0,1,1,6,6,2,2,0,0,1,8,4Z" transform="translate(0)"/>
<path d="M27,25H21a3,3,0,0,0-3,3v2h2V28a1,1,0,0,1,1-1h6a1,1,0,0,1,1,1v2h2V28A3,3,0,0,0,27,25Z" transform="translate(0)"/>
<path d="M20,20a4,4,0,1,0,4-4A4,4,0,0,0,20,20Zm6,0a2,2,0,1,1-2-2A2,2,0,0,1,26,20Z" transform="translate(0)"/>
<rect id="_Transparent_Rectangle_" data-name="&lt;Transparent Rectangle&gt;" class="cls-1" width="32" height="32"/>
</g>
</svg>