<!DOCTYPE svg PUBLIC "-//W3C//DTD SVG 1.1//EN" "http://www.w3.org/Graphics/SVG/1.1/DTD/svg11.dtd">
<!-- Uploaded to: SVG Repo, www.svgrepo.com, Transformed by: SVG Repo Mixer Tools -->
<svg fill="#cf4500" width="80px" height="80px" viewBox="-672 -672 3264.00 3264.00" xmlns="http://www.w3.org/2000/svg" stroke="#cf4500">
<g id="SVGRepo_bgCarrier" stroke-width="0">
<path transform="translate(-672, -672), scale(204)" fill="#323231" d="M9.166.33a2.25 2.25 0 00-2.332 0l-5.25 3.182A2.25 2.25 0 00.5 5.436v5.128a2.25 2.25 0 001.084 1.924l5.25 3.182a2.25 2.25 0 002.332 0l5.25-3.182a2.25 2.25 0 001.084-1.924V5.436a2.25 2.25 0 00-1.084-1.924L9.166.33z" strokewidth="0"/>
</g>
<g id="SVGRepo_tracerCarrier" stroke-linecap="round" stroke-linejoin="round"/>
<g id="SVGRepo_iconCarrier"> <g fill-rule="evenodd"> <path fill-rule="nonzero" d="M0 53v1813.33h1386.67v-320H1280v213.34H106.667V159.667H1280V373h106.67V53z"/> <path d="M1226.67 1439.67c113.33 0 217.48-39.28 299.6-104.96l302.37 302.65c20.82 20.84 54.59 20.85 75.42.04 20.84-20.82 20.86-54.59.04-75.43l-302.41-302.68c65.7-82.12 104.98-186.29 104.98-299.623 0-265.097-214.91-480-480-480-265.1 0-480.003 214.903-480.003 480 0 265.093 214.903 480.003 480.003 480.003Zm0-106.67c206.18 0 373.33-167.15 373.33-373.333 0-206.187-167.15-373.334-373.33-373.334-206.19 0-373.337 167.147-373.337 373.334 0 206.183 167.147 373.333 373.337 373.333Z"/> </g> </g>
</svg>